<svg width="317" height="231" viewBox="0 0 317 231" fill="none" xmlns="http://www.w3.org/2000/svg">
<g filter="url(#filter0_d_17_29)">
<path d="M146 202.071V25.4167L95.1532 8L27.1531 60.25L10 179.181L78 217C78 217 85.7189 215.209 146 202.071Z" stroke="#201E1C" stroke-opacity="0.92" stroke-width="10" shape-rendering="crispEdges"/>
</g>
<g filter="url(#filter1_d_17_29)">
<path d="M171 200.071V23.4167L221.847 6L289.847 58.25L307 177.181L239 215C239 215 231.281 213.209 171 200.071Z" stroke="#201E1C" stroke-opacity="0.92" stroke-width="10" shape-rendering="crispEdges"/>
</g>
<path d="M238 136.339L237.575 135.434L237 135.704V136.339H238ZM267 122.722L267.425 123.627L268 123.357V122.722H267ZM261.667 97C261.667 99.9455 264.054 102.333 267 102.333C269.946 102.333 272.333 99.9455 272.333 97C272.333 94.0545 269.946 91.6667 267 91.6667C264.054 91.6667 261.667 94.0545 261.667 97ZM239 213V136.339H237V213H239ZM238.425 137.244L267.425 123.627L266.575 121.817L237.575 135.434L238.425 137.244ZM268 122.722V97H266V122.722H268Z" fill="#201E1C"/>
<path d="M253 151L252.598 150.084L252 150.347V151H253ZM281.5 138.5L281.902 139.416L282.5 139.153V138.5H281.5ZM276.167 113.5C276.167 116.446 278.554 118.833 281.5 118.833C284.446 118.833 286.833 116.446 286.833 113.5C286.833 110.554 284.446 108.167 281.5 108.167C278.554 108.167 276.167 110.554 276.167 113.5ZM254 203.5V151H252V203.5H254ZM253.402 151.916L281.902 139.416L281.098 137.584L252.598 150.084L253.402 151.916ZM282.5 138.5V113.5H280.5V138.5H282.5Z" fill="#201E1C"/>
<path d="M204 178.059L204.56 178.887L205 178.59V178.059H204ZM198.667 155C198.667 157.946 201.054 160.333 204 160.333C206.946 160.333 209.333 157.946 209.333 155C209.333 152.054 206.946 149.667 204 149.667C201.054 149.667 198.667 152.054 198.667 155ZM176.56 197.828L204.56 178.887L203.44 177.231L175.44 196.172L176.56 197.828ZM205 178.059V155H203V178.059H205Z" fill="#201E1C"/>
<path d="M215 61H214V61.5848L214.51 61.8716L215 61ZM239 74.5H240V73.9152L239.49 73.6284L239 74.5ZM233.667 95.5C233.667 98.4455 236.054 100.833 239 100.833C241.946 100.833 244.333 98.4455 244.333 95.5C244.333 92.5545 241.946 90.1667 239 90.1667C236.054 90.1667 233.667 92.5545 233.667 95.5ZM214 8V61H216V8H214ZM214.51 61.8716L238.51 75.3716L239.49 73.6284L215.49 60.1284L214.51 61.8716ZM238 74.5V95.5H240V74.5H238Z" fill="#201E1C"/>
<path d="M198 73H197V73.5848L197.51 73.8716L198 73ZM222 86.5H223V85.9152L222.49 85.6284L222 86.5ZM216.667 108C216.667 110.946 219.054 113.333 222 113.333C224.946 113.333 227.333 110.946 227.333 108C227.333 105.054 224.946 102.667 222 102.667C219.054 102.667 216.667 105.054 216.667 108ZM197 17V73H199V17H197ZM197.51 73.8716L221.51 87.3716L222.49 85.6284L198.49 72.1284L197.51 73.8716ZM221 86.5V108H223V86.5H221Z" fill="#201E1C"/>
<path d="M190.5 165L191.091 165.807L191.5 165.507V165H190.5ZM185.167 136C185.167 138.946 187.554 141.333 190.5 141.333C193.446 141.333 195.833 138.946 195.833 136C195.833 133.054 193.446 130.667 190.5 130.667C187.554 130.667 185.167 133.054 185.167 136ZM170.591 180.807L191.091 165.807L189.909 164.193L169.409 179.193L170.591 180.807ZM191.5 165V136H189.5V165H191.5Z" fill="#201E1C"/>
<path d="M80 141.5H81V141.004L80.6051 140.704L80 141.5ZM55 122.5H54V122.996L54.3949 123.296L55 122.5ZM55 63.7265L49.2265 69.5L55 75.2735L60.7735 69.5L55 63.7265ZM81 212.5V141.5H79V212.5H81ZM80.6051 140.704L55.6051 121.704L54.3949 123.296L79.3949 142.296L80.6051 140.704ZM56 122.5V69.5H54V122.5H56Z" fill="#201E1C"/>
<path d="M93 165.5L92.5343 164.615L92 164.896V165.5H93ZM112 155.5L112.466 156.385L113 156.104V155.5H112ZM112 135.726L106.226 141.5L112 147.274L117.774 141.5L112 135.726ZM94 210.5V165.5H92V210.5H94ZM93.4657 166.385L112.466 156.385L111.534 154.615L92.5343 164.615L93.4657 166.385ZM113 155.5V141.5H111V155.5H113Z" fill="#201E1C"/>
<path d="M64 157.5H65V157.029L64.6369 156.729L64 157.5ZM41 138.5H40V138.971L40.3631 139.271L41 138.5ZM41 82.7265L35.2265 88.5L41 94.2735L46.7735 88.5L41 82.7265ZM65 203.5V157.5H63V203.5H65ZM64.6369 156.729L41.6369 137.729L40.3631 139.271L63.3631 158.271L64.6369 156.729ZM42 138.5V88.5H40V138.5H42Z" fill="#201E1C"/>
<path d="M124 87.6231L123.246 86.9665L123 87.2488V87.6231H124ZM124 181.274L129.774 175.5L124 169.727L118.226 175.5L124 181.274ZM144.246 62.8434L123.246 86.9665L124.754 88.2797L145.754 64.1566L144.246 62.8434ZM123 87.6231V175.5H125V87.6231H123Z" fill="#201E1C"/>
<path d="M112 97.6017L112.617 98.3883L113 98.088V97.6017H112ZM93 112.517L92.3825 111.73L92 112.031V112.517H93ZM93 132.274L98.7735 126.5L93 120.727L87.2265 126.5L93 132.274ZM111 16.5V97.6017H113V16.5H111ZM111.383 96.8151L92.3825 111.73L93.6175 113.304L112.617 98.3883L111.383 96.8151ZM92 112.517V126.5H94V112.517H92Z" fill="#201E1C"/>
<path d="M82 53.7857H83V53.2958L82.6128 52.9955L82 53.7857ZM82 79.2735L87.7735 73.5L82 67.7265L76.2265 73.5L82 79.2735ZM60.3872 38.2902L81.3872 54.5759L82.6128 52.9955L61.6128 36.7098L60.3872 38.2902ZM81 53.7857V73.5H83V53.7857H81Z" fill="#201E1C"/>
<path d="M101 83.5L101.662 84.2498L102 83.9513V83.5H101ZM82 100.265L81.3384 99.5149L81 99.8134V100.265H82ZM82 119.274L87.7735 113.5L82 107.727L76.2265 113.5L82 119.274ZM100 8.5V83.5H102V8.5H100ZM100.338 82.7502L81.3384 99.5149L82.6616 101.015L101.662 84.2498L100.338 82.7502ZM81 100.265V113.5H83V100.265H81Z" fill="#201E1C"/>
<defs>
<filter id="filter0_d_17_29" x="0.559509" y="2.40015" width="154.44" height="227.906" filterUnits="userSpaceOnUse" color-interpolation-filters="sRGB">
<feFlood flood-opacity="0" result="BackgroundImageFix"/>
<feColorMatrix in="SourceAlpha" type="matrix" values="0 0 0 0 0 0 0 0 0 0 0 0 0 0 0 0 0 0 127 0" result="hardAlpha"/>
<feOffset dy="4"/>
<feGaussianBlur stdDeviation="2"/>
<feComposite in2="hardAlpha" operator="out"/>
<feColorMatrix type="matrix" values="0 0 0 0 0 0 0 0 0 0 0 0 0 0 0 0 0 0 0.25 0"/>
<feBlend mode="normal" in2="BackgroundImageFix" result="effect1_dropShadow_17_29"/>
<feBlend mode="normal" in="SourceGraphic" in2="effect1_dropShadow_17_29" result="shape"/>
</filter>
<filter id="filter1_d_17_29" x="162" y="0.400146" width="154.44" height="227.906" filterUnits="userSpaceOnUse" color-interpolation-filters="sRGB">
<feFlood flood-opacity="0" result="BackgroundImageFix"/>
<feColorMatrix in="SourceAlpha" type="matrix" values="0 0 0 0 0 0 0 0 0 0 0 0 0 0 0 0 0 0 127 0" result="hardAlpha"/>
<feOffset dy="4"/>
<feGaussianBlur stdDeviation="2"/>
<feComposite in2="hardAlpha" operator="out"/>
<feColorMatrix type="matrix" values="0 0 0 0 0 0 0 0 0 0 0 0 0 0 0 0 0 0 0.25 0"/>
<feBlend mode="normal" in2="BackgroundImageFix" result="effect1_dropShadow_17_29"/>
<feBlend mode="normal" in="SourceGraphic" in2="effect1_dropShadow_17_29" result="shape"/>
</filter>
</defs>
</svg>
