<svg width="440" height="58" viewBox="0 0 440 58" fill="none" xmlns="http://www.w3.org/2000/svg">
<g filter="url(#filter0_di_4_171)">
<path d="M16.8876 12.974C16.8876 13.81 16.6676 14.5287 16.2276 15.13C15.8022 15.7313 15.2229 16.1933 14.4896 16.516C13.7562 16.8387 12.9496 17 12.0696 17H4.61156V1.38H12.6636C13.3969 1.38 14.0276 1.578 14.5556 1.974C15.0982 2.35533 15.5089 2.854 15.7876 3.47C16.0809 4.07133 16.2276 4.702 16.2276 5.362C16.2276 6.12467 16.0296 6.84333 15.6336 7.518C15.2522 8.178 14.7022 8.66933 13.9836 8.992C14.8782 9.256 15.5822 9.74 16.0956 10.444C16.6236 11.1333 16.8876 11.9767 16.8876 12.974ZM14.3576 12.512C14.3576 12.072 14.2622 11.676 14.0716 11.324C13.8956 10.9573 13.6462 10.664 13.3236 10.444C13.0156 10.2093 12.6489 10.092 12.2236 10.092H7.07556V14.866H12.0696C12.5096 14.866 12.8982 14.7633 13.2356 14.558C13.5876 14.338 13.8589 14.052 14.0496 13.7C14.2549 13.3333 14.3576 12.9373 14.3576 12.512ZM7.07556 3.514V8.112H11.6076C12.0182 8.112 12.3849 8.01667 12.7076 7.826C13.0302 7.62067 13.2869 7.34933 13.4776 7.012C13.6682 6.66 13.7636 6.264 13.7636 5.824C13.7636 5.36933 13.6756 4.97333 13.4996 4.636C13.3236 4.284 13.0816 4.01267 12.7736 3.822C12.4802 3.61667 12.1356 3.514 11.7396 3.514H7.07556ZM19.0393 17V14.184H21.0413V17H19.0393ZM38.8164 5.054C38.6697 4.89267 38.4571 4.724 38.1784 4.548C37.8997 4.35733 37.5697 4.18133 37.1884 4.02C36.8071 3.85867 36.3964 3.72667 35.9564 3.624C35.5164 3.52133 35.0617 3.47 34.5924 3.47C33.5657 3.47 32.8031 3.66067 32.3044 4.042C31.8057 4.42333 31.5564 4.95133 31.5564 5.626C31.5564 6.12467 31.6957 6.52067 31.9744 6.814C32.2531 7.09267 32.6784 7.32733 33.2504 7.518C33.8224 7.70867 34.5411 7.914 35.4064 8.134C36.4624 8.38333 37.3791 8.684 38.1564 9.036C38.9337 9.37333 39.5277 9.828 39.9384 10.4C40.3491 10.972 40.5544 11.7273 40.5544 12.666C40.5544 13.458 40.4077 14.14 40.1144 14.712C39.8211 15.284 39.4104 15.7533 38.8824 16.12C38.3544 16.472 37.7457 16.736 37.0564 16.912C36.3671 17.0733 35.6264 17.154 34.8344 17.154C34.0571 17.154 33.2797 17.0733 32.5024 16.912C31.7397 16.7507 31.0064 16.516 30.3024 16.208C29.6131 15.8853 28.9751 15.4967 28.3884 15.042L29.5104 12.93C29.7011 13.1207 29.9724 13.3333 30.3244 13.568C30.6911 13.788 31.1091 14.0007 31.5784 14.206C32.0624 14.4113 32.5831 14.5873 33.1404 14.734C33.7124 14.866 34.2917 14.932 34.8784 14.932C35.8611 14.932 36.6091 14.7633 37.1224 14.426C37.6504 14.074 37.9144 13.5753 37.9144 12.93C37.9144 12.402 37.7457 11.984 37.4084 11.676C37.0711 11.3533 36.5797 11.082 35.9344 10.862C35.2891 10.642 34.5191 10.422 33.6244 10.202C32.5977 9.92333 31.7397 9.62267 31.0504 9.3C30.3611 8.96267 29.8404 8.53733 29.4884 8.024C29.1511 7.496 28.9824 6.82867 28.9824 6.022C28.9824 4.99533 29.2317 4.13 29.7304 3.426C30.2291 2.70733 30.9037 2.172 31.7544 1.82C32.6197 1.45333 33.5877 1.27 34.6584 1.27C35.3624 1.27 36.0297 1.35067 36.6604 1.512C37.2911 1.65867 37.8777 1.864 38.4204 2.128C38.9777 2.392 39.4837 2.69267 39.9384 3.03L38.8164 5.054ZM47.9316 17.22C47.037 17.22 46.223 17.066 45.4896 16.758C44.771 16.4353 44.1476 15.9953 43.6196 15.438C43.0916 14.8807 42.681 14.2427 42.3876 13.524C42.109 12.8053 41.9696 12.0427 41.9696 11.236C41.9696 10.1507 42.2116 9.16067 42.6956 8.266C43.1943 7.37133 43.8836 6.65267 44.7636 6.11C45.6583 5.56733 46.7143 5.296 47.9316 5.296C49.105 5.296 50.1243 5.56 50.9896 6.088C51.8696 6.60133 52.515 7.29067 52.9256 8.156L50.5716 8.904C50.3076 8.42 49.9336 8.046 49.4496 7.782C48.9803 7.50333 48.4596 7.364 47.8876 7.364C47.2423 7.364 46.6556 7.53267 46.1276 7.87C45.6143 8.19267 45.2036 8.64733 44.8956 9.234C44.6023 9.806 44.4556 10.4733 44.4556 11.236C44.4556 11.9693 44.6096 12.6367 44.9176 13.238C45.2256 13.8247 45.6363 14.294 46.1496 14.646C46.6776 14.9833 47.2643 15.152 47.9096 15.152C48.3056 15.152 48.687 15.086 49.0536 14.954C49.435 14.8073 49.765 14.6167 50.0436 14.382C50.3223 14.1327 50.5203 13.8613 50.6376 13.568L53.0136 14.272C52.7643 14.844 52.3903 15.35 51.8916 15.79C51.4076 16.23 50.8283 16.582 50.1536 16.846C49.4936 17.0953 48.753 17.22 47.9316 17.22ZM54.8967 17V14.184H56.8987V17H54.8967ZM64.4438 9.08C64.4438 8.12667 64.6125 7.19533 64.9498 6.286C65.2872 5.362 65.7785 4.526 66.4238 3.778C67.0838 3.01533 67.8832 2.414 68.8218 1.974C69.7605 1.51933 70.8238 1.292 72.0118 1.292C73.4198 1.292 74.6372 1.61467 75.6638 2.26C76.6905 2.89067 77.4532 3.70467 77.9518 4.702L76.0158 6C75.7225 5.36933 75.3485 4.87067 74.8938 4.504C74.4538 4.13733 73.9698 3.88067 73.4418 3.734C72.9285 3.58733 72.4225 3.514 71.9238 3.514C71.1025 3.514 70.3838 3.68267 69.7678 4.02C69.1518 4.34267 68.6312 4.77533 68.2058 5.318C67.7952 5.86067 67.4798 6.46933 67.2598 7.144C67.0545 7.81867 66.9518 8.49333 66.9518 9.168C66.9518 9.916 67.0765 10.642 67.3258 11.346C67.5752 12.0353 67.9198 12.6513 68.3598 13.194C68.8145 13.722 69.3498 14.14 69.9658 14.448C70.5818 14.756 71.2565 14.91 71.9898 14.91C72.4885 14.91 73.0092 14.822 73.5518 14.646C74.0945 14.47 74.5932 14.1987 75.0478 13.832C75.5172 13.4507 75.8838 12.952 76.1478 12.336L78.1938 13.502C77.8712 14.2793 77.3652 14.9393 76.6758 15.482C76.0012 16.0247 75.2385 16.4353 74.3878 16.714C73.5518 16.9927 72.7232 17.132 71.9018 17.132C70.8018 17.132 69.7972 16.9047 68.8878 16.45C67.9785 15.9807 67.1938 15.3647 66.5338 14.602C65.8738 13.8247 65.3605 12.9593 64.9938 12.006C64.6272 11.038 64.4438 10.0627 64.4438 9.08ZM85.3134 17.22C84.4041 17.22 83.5901 17.066 82.8714 16.758C82.1527 16.4353 81.5294 15.9953 81.0014 15.438C80.4881 14.8807 80.0921 14.25 79.8134 13.546C79.5347 12.8273 79.3954 12.0647 79.3954 11.258C79.3954 10.4513 79.5347 9.68867 79.8134 8.97C80.0921 8.25133 80.4881 7.62067 81.0014 7.078C81.5294 6.52067 82.1527 6.088 82.8714 5.78C83.6047 5.45733 84.4187 5.296 85.3134 5.296C86.2081 5.296 87.0147 5.45733 87.7334 5.78C88.4667 6.088 89.0901 6.52067 89.6034 7.078C90.1314 7.62067 90.5347 8.25133 90.8134 8.97C91.0921 9.68867 91.2314 10.4513 91.2314 11.258C91.2314 12.0647 91.0921 12.8273 90.8134 13.546C90.5347 14.25 90.1314 14.8807 89.6034 15.438C89.0901 15.9953 88.4667 16.4353 87.7334 16.758C87.0147 17.066 86.2081 17.22 85.3134 17.22ZM81.8814 11.28C81.8814 12.0133 82.0354 12.6733 82.3434 13.26C82.6514 13.8467 83.0621 14.3087 83.5754 14.646C84.0887 14.9833 84.6681 15.152 85.3134 15.152C85.9441 15.152 86.5161 14.9833 87.0294 14.646C87.5574 14.294 87.9754 13.8247 88.2834 13.238C88.5914 12.6367 88.7454 11.9767 88.7454 11.258C88.7454 10.5247 88.5914 9.86467 88.2834 9.278C87.9754 8.69133 87.5574 8.22933 87.0294 7.892C86.5161 7.54 85.9441 7.364 85.3134 7.364C84.6681 7.364 84.0887 7.54 83.5754 7.892C83.0621 8.244 82.6514 8.71333 82.3434 9.3C82.0354 9.872 81.8814 10.532 81.8814 11.28ZM97.9318 17.11C97.1544 17.11 96.4431 16.956 95.7978 16.648C95.1524 16.3253 94.5951 15.8927 94.1258 15.35C93.6711 14.8073 93.3118 14.184 93.0478 13.48C92.7984 12.776 92.6738 12.0353 92.6738 11.258C92.6738 10.4367 92.8058 9.66667 93.0698 8.948C93.3338 8.22933 93.7004 7.59867 94.1698 7.056C94.6538 6.49867 95.2184 6.066 95.8638 5.758C96.5091 5.45 97.2278 5.296 98.0198 5.296C98.9438 5.296 99.7504 5.516 100.44 5.956C101.144 6.396 101.723 6.968 102.178 7.672V5.494H104.312V16.67C104.312 17.7847 104.04 18.7307 103.498 19.508C102.97 20.2853 102.244 20.8793 101.32 21.29C100.396 21.7007 99.3544 21.906 98.1958 21.906C96.9198 21.906 95.8638 21.686 95.0278 21.246C94.1918 20.806 93.4804 20.2047 92.8938 19.442L94.2578 18.166C94.6978 18.782 95.2624 19.2513 95.9518 19.574C96.6558 19.8967 97.4038 20.058 98.1958 20.058C98.8558 20.058 99.4644 19.9333 100.022 19.684C100.594 19.4493 101.048 19.0753 101.386 18.562C101.723 18.0633 101.892 17.4327 101.892 16.67V14.91C101.481 15.5993 100.916 16.142 100.198 16.538C99.4791 16.9193 98.7238 17.11 97.9318 17.11ZM98.7238 15.152C99.0904 15.152 99.4424 15.0933 99.7798 14.976C100.117 14.844 100.425 14.6753 100.704 14.47C100.997 14.25 101.246 14.008 101.452 13.744C101.657 13.4653 101.804 13.172 101.892 12.864V9.85C101.701 9.35133 101.43 8.91867 101.078 8.552C100.726 8.17067 100.33 7.87733 99.8898 7.672C99.4498 7.46667 99.0024 7.364 98.5478 7.364C98.0198 7.364 97.5431 7.48133 97.1178 7.716C96.7071 7.936 96.3551 8.23667 96.0618 8.618C95.7684 8.98467 95.5411 9.40267 95.3798 9.872C95.2184 10.3413 95.1378 10.8253 95.1378 11.324C95.1378 11.852 95.2258 12.3433 95.4018 12.798C95.5924 13.2527 95.8491 13.6633 96.1718 14.03C96.4944 14.382 96.8758 14.6607 97.3158 14.866C97.7558 15.0567 98.2251 15.152 98.7238 15.152ZM117.532 17H115.112V10.554C115.112 9.48333 114.936 8.69867 114.584 8.2C114.246 7.70133 113.74 7.452 113.066 7.452C112.596 7.452 112.127 7.56933 111.658 7.804C111.203 8.03867 110.792 8.36133 110.426 8.772C110.059 9.168 109.795 9.63 109.634 10.158V17H107.214V5.494H109.414V7.804C109.707 7.29067 110.088 6.85067 110.558 6.484C111.042 6.10267 111.584 5.80933 112.186 5.604C112.787 5.39867 113.425 5.296 114.1 5.296C114.789 5.296 115.354 5.42067 115.794 5.67C116.248 5.91933 116.6 6.264 116.85 6.704C117.114 7.12933 117.29 7.628 117.378 8.2C117.48 8.75733 117.532 9.35133 117.532 9.982V17ZM120.341 17V5.494H122.761V17H120.341ZM120.341 3.602V0.94H122.761V3.602H120.341ZM132.071 16.406C131.865 16.5087 131.609 16.6187 131.301 16.736C130.993 16.8533 130.641 16.956 130.245 17.044C129.863 17.132 129.467 17.176 129.057 17.176C128.558 17.176 128.096 17.088 127.671 16.912C127.245 16.736 126.901 16.4573 126.637 16.076C126.387 15.68 126.263 15.174 126.263 14.558V7.364H124.745V5.494H126.263V1.71H128.683V5.494H131.191V7.364H128.683V13.788C128.712 14.184 128.837 14.4773 129.057 14.668C129.291 14.8587 129.577 14.954 129.915 14.954C130.252 14.954 130.575 14.8953 130.883 14.778C131.191 14.6607 131.418 14.5653 131.565 14.492L132.071 16.406ZM133.747 17V5.494H136.167V17H133.747ZM133.747 3.602V0.94H136.167V3.602H133.747ZM142.287 17L137.909 5.494H140.417L143.695 14.756L146.973 5.494H149.305L144.927 17H142.287ZM155.869 17.22C154.974 17.22 154.16 17.066 153.427 16.758C152.708 16.4353 152.085 16.0027 151.557 15.46C151.029 14.9027 150.618 14.272 150.325 13.568C150.046 12.8493 149.907 12.0867 149.907 11.28C149.907 10.1947 150.156 9.20467 150.655 8.31C151.154 7.40067 151.85 6.67467 152.745 6.132C153.64 5.57467 154.688 5.296 155.891 5.296C157.094 5.296 158.128 5.57467 158.993 6.132C159.873 6.67467 160.555 7.39333 161.039 8.288C161.523 9.18267 161.765 10.1433 161.765 11.17C161.765 11.346 161.758 11.5147 161.743 11.676C161.728 11.8227 161.714 11.9473 161.699 12.05H152.481C152.525 12.7247 152.708 13.3187 153.031 13.832C153.368 14.3307 153.794 14.7267 154.307 15.02C154.82 15.2987 155.37 15.438 155.957 15.438C156.602 15.438 157.211 15.2767 157.783 14.954C158.37 14.6313 158.766 14.206 158.971 13.678L161.039 14.272C160.79 14.8293 160.408 15.3353 159.895 15.79C159.396 16.23 158.802 16.582 158.113 16.846C157.424 17.0953 156.676 17.22 155.869 17.22ZM152.415 10.444H159.367C159.323 9.784 159.132 9.20467 158.795 8.706C158.472 8.19267 158.054 7.79667 157.541 7.518C157.042 7.22467 156.485 7.078 155.869 7.078C155.268 7.078 154.71 7.22467 154.197 7.518C153.698 7.79667 153.288 8.19267 152.965 8.706C152.642 9.20467 152.459 9.784 152.415 10.444ZM179.779 17L172.277 9.058C171.646 8.38333 171.147 7.81133 170.781 7.342C170.414 6.87267 170.15 6.44 169.989 6.044C169.827 5.648 169.747 5.23733 169.747 4.812C169.747 4.09333 169.923 3.46267 170.275 2.92C170.641 2.37733 171.14 1.952 171.771 1.644C172.401 1.336 173.105 1.182 173.883 1.182C174.601 1.182 175.261 1.314 175.863 1.578C176.464 1.82733 176.948 2.20133 177.315 2.7C177.681 3.184 177.865 3.78533 177.865 4.504C177.865 5.17867 177.689 5.78733 177.337 6.33C176.985 6.87267 176.515 7.37133 175.929 7.826C175.342 8.28067 174.689 8.728 173.971 9.168C173.413 9.53467 172.907 9.90133 172.453 10.268C171.998 10.62 171.639 11.0013 171.375 11.412C171.125 11.808 171.001 12.2553 171.001 12.754C171.001 13.2527 171.14 13.7 171.419 14.096C171.697 14.4773 172.071 14.778 172.541 14.998C173.01 15.2033 173.523 15.306 174.081 15.306C174.77 15.306 175.423 15.1447 176.039 14.822C176.655 14.4993 177.205 14.0447 177.689 13.458C178.173 12.8567 178.547 12.1527 178.811 11.346C179.089 10.5393 179.229 9.65933 179.229 8.706H181.209C181.209 9.99667 181.003 11.1627 180.593 12.204C180.197 13.2453 179.654 14.14 178.965 14.888C178.29 15.636 177.505 16.2153 176.611 16.626C175.731 17.022 174.799 17.22 173.817 17.22C172.805 17.22 171.91 17.022 171.133 16.626C170.355 16.2153 169.747 15.6727 169.307 14.998C168.881 14.3233 168.669 13.568 168.669 12.732C168.669 11.9107 168.852 11.1993 169.219 10.598C169.6 9.982 170.084 9.43933 170.671 8.97C171.272 8.486 171.873 8.05333 172.475 7.672C173.12 7.26133 173.677 6.902 174.147 6.594C174.616 6.27133 174.983 5.94867 175.247 5.626C175.511 5.28867 175.643 4.92933 175.643 4.548C175.643 4.07867 175.474 3.70467 175.137 3.426C174.814 3.13267 174.396 2.986 173.883 2.986C173.501 2.986 173.164 3.06667 172.871 3.228C172.592 3.38933 172.372 3.602 172.211 3.866C172.049 4.13 171.969 4.42333 171.969 4.746C171.969 4.966 172.027 5.19333 172.145 5.428C172.262 5.648 172.482 5.94133 172.805 6.308C173.127 6.66 173.575 7.144 174.147 7.76L182.969 17H179.779ZM189.247 9.08C189.247 8.12667 189.415 7.19533 189.753 6.286C190.09 5.362 190.581 4.526 191.227 3.778C191.887 3.01533 192.686 2.414 193.625 1.974C194.563 1.51933 195.627 1.292 196.815 1.292C198.223 1.292 199.44 1.61467 200.467 2.26C201.493 2.89067 202.256 3.70467 202.755 4.702L200.819 6C200.525 5.36933 200.151 4.87067 199.697 4.504C199.257 4.13733 198.773 3.88067 198.245 3.734C197.731 3.58733 197.225 3.514 196.727 3.514C195.905 3.514 195.187 3.68267 194.571 4.02C193.955 4.34267 193.434 4.77533 193.009 5.318C192.598 5.86067 192.283 6.46933 192.063 7.144C191.857 7.81867 191.755 8.49333 191.755 9.168C191.755 9.916 191.879 10.642 192.129 11.346C192.378 12.0353 192.723 12.6513 193.163 13.194C193.617 13.722 194.153 14.14 194.769 14.448C195.385 14.756 196.059 14.91 196.793 14.91C197.291 14.91 197.812 14.822 198.355 14.646C198.897 14.47 199.396 14.1987 199.851 13.832C200.32 13.4507 200.687 12.952 200.951 12.336L202.997 13.502C202.674 14.2793 202.168 14.9393 201.479 15.482C200.804 16.0247 200.041 16.4353 199.191 16.714C198.355 16.9927 197.526 17.132 196.705 17.132C195.605 17.132 194.6 16.9047 193.691 16.45C192.781 15.9807 191.997 15.3647 191.337 14.602C190.677 13.8247 190.163 12.9593 189.797 12.006C189.43 11.038 189.247 10.0627 189.247 9.08ZM210.116 17.22C209.207 17.22 208.393 17.066 207.674 16.758C206.955 16.4353 206.332 15.9953 205.804 15.438C205.291 14.8807 204.895 14.25 204.616 13.546C204.337 12.8273 204.198 12.0647 204.198 11.258C204.198 10.4513 204.337 9.68867 204.616 8.97C204.895 8.25133 205.291 7.62067 205.804 7.078C206.332 6.52067 206.955 6.088 207.674 5.78C208.407 5.45733 209.221 5.296 210.116 5.296C211.011 5.296 211.817 5.45733 212.536 5.78C213.269 6.088 213.893 6.52067 214.406 7.078C214.934 7.62067 215.337 8.25133 215.616 8.97C215.895 9.68867 216.034 10.4513 216.034 11.258C216.034 12.0647 215.895 12.8273 215.616 13.546C215.337 14.25 214.934 14.8807 214.406 15.438C213.893 15.9953 213.269 16.4353 212.536 16.758C211.817 17.066 211.011 17.22 210.116 17.22ZM206.684 11.28C206.684 12.0133 206.838 12.6733 207.146 13.26C207.454 13.8467 207.865 14.3087 208.378 14.646C208.891 14.9833 209.471 15.152 210.116 15.152C210.747 15.152 211.319 14.9833 211.832 14.646C212.36 14.294 212.778 13.8247 213.086 13.238C213.394 12.6367 213.548 11.9767 213.548 11.258C213.548 10.5247 213.394 9.86467 213.086 9.278C212.778 8.69133 212.36 8.22933 211.832 7.892C211.319 7.54 210.747 7.364 210.116 7.364C209.471 7.364 208.891 7.54 208.378 7.892C207.865 8.244 207.454 8.71333 207.146 9.3C206.838 9.872 206.684 10.532 206.684 11.28ZM235.781 17H233.361V10.554C233.361 9.48333 233.185 8.69867 232.833 8.2C232.481 7.70133 231.967 7.452 231.293 7.452C230.618 7.452 229.987 7.70867 229.401 8.222C228.829 8.72067 228.425 9.37333 228.191 10.18V17H225.771V10.554C225.771 9.48333 225.595 8.69867 225.243 8.2C224.891 7.70133 224.385 7.452 223.725 7.452C223.05 7.452 222.419 7.70133 221.833 8.2C221.261 8.69867 220.85 9.35133 220.601 10.158V17H218.181V5.494H220.381V7.804C220.835 6.99733 221.429 6.38133 222.163 5.956C222.911 5.516 223.761 5.296 224.715 5.296C225.668 5.296 226.416 5.54533 226.959 6.044C227.516 6.54267 227.861 7.166 227.993 7.914C228.491 7.06333 229.1 6.418 229.819 5.978C230.552 5.52333 231.388 5.296 232.327 5.296C233.001 5.296 233.566 5.42067 234.021 5.67C234.475 5.91933 234.827 6.264 235.077 6.704C235.326 7.12933 235.502 7.628 235.605 8.2C235.722 8.75733 235.781 9.35133 235.781 9.982V17ZM245.103 17.22C244.179 17.22 243.365 17 242.661 16.56C241.957 16.12 241.4 15.548 240.989 14.844V21.686H238.569V5.494H240.703V7.562C241.143 6.87267 241.715 6.32267 242.419 5.912C243.123 5.50133 243.908 5.296 244.773 5.296C245.565 5.296 246.291 5.45733 246.951 5.78C247.611 6.088 248.183 6.52067 248.667 7.078C249.151 7.63533 249.525 8.27333 249.789 8.992C250.068 9.696 250.207 10.444 250.207 11.236C250.207 12.336 249.987 13.3407 249.547 14.25C249.122 15.1593 248.521 15.8853 247.743 16.428C246.981 16.956 246.101 17.22 245.103 17.22ZM244.311 15.152C244.825 15.152 245.287 15.042 245.697 14.822C246.123 14.602 246.482 14.3087 246.775 13.942C247.083 13.5753 247.318 13.1573 247.479 12.688C247.641 12.2187 247.721 11.7347 247.721 11.236C247.721 10.708 247.633 10.2093 247.457 9.74C247.281 9.27067 247.025 8.86 246.687 8.508C246.365 8.156 245.983 7.87733 245.543 7.672C245.118 7.46667 244.649 7.364 244.135 7.364C243.827 7.364 243.505 7.42267 243.167 7.54C242.83 7.65733 242.515 7.81867 242.221 8.024C241.928 8.22933 241.671 8.47133 241.451 8.75C241.231 9.02867 241.077 9.322 240.989 9.63V12.644C241.195 13.1133 241.466 13.5387 241.803 13.92C242.141 14.2867 242.529 14.5873 242.969 14.822C243.409 15.042 243.857 15.152 244.311 15.152ZM252.274 12.534V5.494H254.694V12.05C254.694 13.0767 254.877 13.854 255.244 14.382C255.625 14.8953 256.175 15.152 256.894 15.152C257.348 15.152 257.788 15.0567 258.214 14.866C258.654 14.6753 259.05 14.3967 259.402 14.03C259.768 13.6487 260.062 13.194 260.282 12.666V5.494H262.702V14.272C262.702 14.5507 262.753 14.7487 262.856 14.866C262.958 14.9833 263.127 15.0493 263.362 15.064V17C263.112 17.044 262.907 17.0733 262.746 17.088C262.584 17.1027 262.43 17.11 262.284 17.11C261.844 17.11 261.477 16.9927 261.184 16.758C260.89 16.5087 260.722 16.1933 260.678 15.812L260.634 14.668C260.12 15.504 259.453 16.142 258.632 16.582C257.81 17.0073 256.908 17.22 255.926 17.22C254.723 17.22 253.814 16.824 253.198 16.032C252.582 15.24 252.274 14.074 252.274 12.534ZM272.17 16.406C271.965 16.5087 271.708 16.6187 271.4 16.736C271.092 16.8533 270.74 16.956 270.344 17.044C269.963 17.132 269.567 17.176 269.156 17.176C268.658 17.176 268.196 17.088 267.77 16.912C267.345 16.736 267 16.4573 266.736 16.076C266.487 15.68 266.362 15.174 266.362 14.558V7.364H264.844V5.494H266.362V1.71H268.782V5.494H271.29V7.364H268.782V13.788C268.812 14.184 268.936 14.4773 269.156 14.668C269.391 14.8587 269.677 14.954 270.014 14.954C270.352 14.954 270.674 14.8953 270.982 14.778C271.29 14.6607 271.518 14.5653 271.664 14.492L272.17 16.406ZM273.011 13.634C273.011 12.9007 273.216 12.2627 273.627 11.72C274.052 11.1627 274.631 10.7373 275.365 10.444C276.098 10.136 276.949 9.982 277.917 9.982C278.43 9.982 278.951 10.0187 279.479 10.092C280.021 10.1653 280.498 10.2827 280.909 10.444V9.718C280.909 8.91133 280.667 8.28067 280.183 7.826C279.699 7.37133 279.002 7.144 278.093 7.144C277.447 7.144 276.839 7.26133 276.267 7.496C275.695 7.716 275.086 8.03133 274.441 8.442L273.627 6.814C274.389 6.30067 275.152 5.91933 275.915 5.67C276.692 5.42067 277.506 5.296 278.357 5.296C279.897 5.296 281.107 5.70667 281.987 6.528C282.881 7.33467 283.329 8.486 283.329 9.982V14.272C283.329 14.5507 283.373 14.7487 283.461 14.866C283.563 14.9833 283.732 15.0493 283.967 15.064V17C283.747 17.044 283.549 17.0733 283.373 17.088C283.197 17.1027 283.05 17.11 282.933 17.11C282.419 17.11 282.031 16.9853 281.767 16.736C281.503 16.4867 281.349 16.1933 281.305 15.856L281.239 15.196C280.74 15.8413 280.102 16.34 279.325 16.692C278.547 17.044 277.763 17.22 276.971 17.22C276.208 17.22 275.526 17.066 274.925 16.758C274.323 16.4353 273.854 16.0027 273.517 15.46C273.179 14.9173 273.011 14.3087 273.011 13.634ZM280.337 14.338C280.513 14.1473 280.652 13.9567 280.755 13.766C280.857 13.5753 280.909 13.4067 280.909 13.26V11.94C280.498 11.7787 280.065 11.6613 279.611 11.588C279.156 11.5 278.709 11.456 278.269 11.456C277.389 11.456 276.67 11.632 276.113 11.984C275.57 12.336 275.299 12.82 275.299 13.436C275.299 13.7733 275.387 14.096 275.563 14.404C275.753 14.712 276.017 14.9613 276.355 15.152C276.707 15.3427 277.139 15.438 277.653 15.438C278.181 15.438 278.687 15.3353 279.171 15.13C279.655 14.9247 280.043 14.6607 280.337 14.338ZM292.581 16.406C292.375 16.5087 292.119 16.6187 291.811 16.736C291.503 16.8533 291.151 16.956 290.755 17.044C290.373 17.132 289.977 17.176 289.567 17.176C289.068 17.176 288.606 17.088 288.181 16.912C287.755 16.736 287.411 16.4573 287.147 16.076C286.897 15.68 286.773 15.174 286.773 14.558V7.364H285.255V5.494H286.773V1.71H289.193V5.494H291.701V7.364H289.193V13.788C289.222 14.184 289.347 14.4773 289.567 14.668C289.801 14.8587 290.087 14.954 290.425 14.954C290.762 14.954 291.085 14.8953 291.393 14.778C291.701 14.6607 291.928 14.5653 292.075 14.492L292.581 16.406ZM294.257 17V5.494H296.677V17H294.257ZM294.257 3.602V0.94H296.677V3.602H294.257ZM304.755 17.22C303.845 17.22 303.031 17.066 302.313 16.758C301.594 16.4353 300.971 15.9953 300.443 15.438C299.929 14.8807 299.533 14.25 299.255 13.546C298.976 12.8273 298.837 12.0647 298.837 11.258C298.837 10.4513 298.976 9.68867 299.255 8.97C299.533 8.25133 299.929 7.62067 300.443 7.078C300.971 6.52067 301.594 6.088 302.313 5.78C303.046 5.45733 303.86 5.296 304.755 5.296C305.649 5.296 306.456 5.45733 307.175 5.78C307.908 6.088 308.531 6.52067 309.045 7.078C309.573 7.62067 309.976 8.25133 310.255 8.97C310.533 9.68867 310.673 10.4513 310.673 11.258C310.673 12.0647 310.533 12.8273 310.255 13.546C309.976 14.25 309.573 14.8807 309.045 15.438C308.531 15.9953 307.908 16.4353 307.175 16.758C306.456 17.066 305.649 17.22 304.755 17.22ZM301.323 11.28C301.323 12.0133 301.477 12.6733 301.785 13.26C302.093 13.8467 302.503 14.3087 303.017 14.646C303.53 14.9833 304.109 15.152 304.755 15.152C305.385 15.152 305.957 14.9833 306.471 14.646C306.999 14.294 307.417 13.8247 307.725 13.238C308.033 12.6367 308.187 11.9767 308.187 11.258C308.187 10.5247 308.033 9.86467 307.725 9.278C307.417 8.69133 306.999 8.22933 306.471 7.892C305.957 7.54 305.385 7.364 304.755 7.364C304.109 7.364 303.53 7.54 303.017 7.892C302.503 8.244 302.093 8.71333 301.785 9.3C301.477 9.872 301.323 10.532 301.323 11.28ZM323.137 17H320.717V10.554C320.717 9.48333 320.541 8.69867 320.189 8.2C319.852 7.70133 319.346 7.452 318.671 7.452C318.202 7.452 317.733 7.56933 317.263 7.804C316.809 8.03867 316.398 8.36133 316.031 8.772C315.665 9.168 315.401 9.63 315.239 10.158V17H312.819V5.494H315.019V7.804C315.313 7.29067 315.694 6.85067 316.163 6.484C316.647 6.10267 317.19 5.80933 317.791 5.604C318.393 5.39867 319.031 5.296 319.705 5.296C320.395 5.296 320.959 5.42067 321.399 5.67C321.854 5.91933 322.206 6.264 322.455 6.704C322.719 7.12933 322.895 7.628 322.983 8.2C323.086 8.75733 323.137 9.35133 323.137 9.982V17ZM325.11 13.634C325.11 12.9007 325.315 12.2627 325.726 11.72C326.151 11.1627 326.731 10.7373 327.464 10.444C328.197 10.136 329.048 9.982 330.016 9.982C330.529 9.982 331.05 10.0187 331.578 10.092C332.121 10.1653 332.597 10.2827 333.008 10.444V9.718C333.008 8.91133 332.766 8.28067 332.282 7.826C331.798 7.37133 331.101 7.144 330.192 7.144C329.547 7.144 328.938 7.26133 328.366 7.496C327.794 7.716 327.185 8.03133 326.54 8.442L325.726 6.814C326.489 6.30067 327.251 5.91933 328.014 5.67C328.791 5.42067 329.605 5.296 330.456 5.296C331.996 5.296 333.206 5.70667 334.086 6.528C334.981 7.33467 335.428 8.486 335.428 9.982V14.272C335.428 14.5507 335.472 14.7487 335.56 14.866C335.663 14.9833 335.831 15.0493 336.066 15.064V17C335.846 17.044 335.648 17.0733 335.472 17.088C335.296 17.1027 335.149 17.11 335.032 17.11C334.519 17.11 334.13 16.9853 333.866 16.736C333.602 16.4867 333.448 16.1933 333.404 15.856L333.338 15.196C332.839 15.8413 332.201 16.34 331.424 16.692C330.647 17.044 329.862 17.22 329.07 17.22C328.307 17.22 327.625 17.066 327.024 16.758C326.423 16.4353 325.953 16.0027 325.616 15.46C325.279 14.9173 325.11 14.3087 325.11 13.634ZM332.436 14.338C332.612 14.1473 332.751 13.9567 332.854 13.766C332.957 13.5753 333.008 13.4067 333.008 13.26V11.94C332.597 11.7787 332.165 11.6613 331.71 11.588C331.255 11.5 330.808 11.456 330.368 11.456C329.488 11.456 328.769 11.632 328.212 11.984C327.669 12.336 327.398 12.82 327.398 13.436C327.398 13.7733 327.486 14.096 327.662 14.404C327.853 14.712 328.117 14.9613 328.454 15.152C328.806 15.3427 329.239 15.438 329.752 15.438C330.28 15.438 330.786 15.3353 331.27 15.13C331.754 14.9247 332.143 14.6607 332.436 14.338ZM338.386 0.94H340.806V13.678C340.806 14.2647 340.894 14.6387 341.07 14.8C341.246 14.9613 341.466 15.042 341.73 15.042C342.023 15.042 342.295 15.0127 342.544 14.954C342.808 14.8953 343.035 14.822 343.226 14.734L343.578 16.648C343.226 16.7947 342.808 16.9193 342.324 17.022C341.84 17.1247 341.407 17.176 341.026 17.176C340.205 17.176 339.559 16.9487 339.09 16.494C338.621 16.0247 338.386 15.3793 338.386 14.558V0.94ZM359.342 5.054C359.195 4.89267 358.982 4.724 358.704 4.548C358.425 4.35733 358.095 4.18133 357.714 4.02C357.332 3.85867 356.922 3.72667 356.482 3.624C356.042 3.52133 355.587 3.47 355.118 3.47C354.091 3.47 353.328 3.66067 352.83 4.042C352.331 4.42333 352.082 4.95133 352.082 5.626C352.082 6.12467 352.221 6.52067 352.5 6.814C352.778 7.09267 353.204 7.32733 353.776 7.518C354.348 7.70867 355.066 7.914 355.932 8.134C356.988 8.38333 357.904 8.684 358.682 9.036C359.459 9.37333 360.053 9.828 360.464 10.4C360.874 10.972 361.08 11.7273 361.08 12.666C361.08 13.458 360.933 14.14 360.64 14.712C360.346 15.284 359.936 15.7533 359.408 16.12C358.88 16.472 358.271 16.736 357.582 16.912C356.892 17.0733 356.152 17.154 355.36 17.154C354.582 17.154 353.805 17.0733 353.028 16.912C352.265 16.7507 351.532 16.516 350.828 16.208C350.138 15.8853 349.5 15.4967 348.914 15.042L350.036 12.93C350.226 13.1207 350.498 13.3333 350.85 13.568C351.216 13.788 351.634 14.0007 352.104 14.206C352.588 14.4113 353.108 14.5873 353.666 14.734C354.238 14.866 354.817 14.932 355.404 14.932C356.386 14.932 357.134 14.7633 357.648 14.426C358.176 14.074 358.44 13.5753 358.44 12.93C358.44 12.402 358.271 11.984 357.934 11.676C357.596 11.3533 357.105 11.082 356.46 10.862C355.814 10.642 355.044 10.422 354.15 10.202C353.123 9.92333 352.265 9.62267 351.576 9.3C350.886 8.96267 350.366 8.53733 350.014 8.024C349.676 7.496 349.508 6.82867 349.508 6.022C349.508 4.99533 349.757 4.13 350.256 3.426C350.754 2.70733 351.429 2.172 352.28 1.82C353.145 1.45333 354.113 1.27 355.184 1.27C355.888 1.27 356.555 1.35067 357.186 1.512C357.816 1.65867 358.403 1.864 358.946 2.128C359.503 2.392 360.009 2.69267 360.464 3.03L359.342 5.054ZM363.274 19.706C363.494 19.7353 363.706 19.7647 363.912 19.794C364.132 19.838 364.308 19.86 364.44 19.86C364.689 19.86 364.902 19.7793 365.078 19.618C365.268 19.4713 365.459 19.1927 365.65 18.782C365.84 18.3713 366.075 17.7773 366.354 17L361.624 5.494H364.154L367.674 14.536L370.798 5.494H373.13L367.916 19.662C367.754 20.0873 367.52 20.476 367.212 20.828C366.904 21.1947 366.522 21.4807 366.068 21.686C365.613 21.8913 365.078 21.994 364.462 21.994C364.286 21.994 364.102 21.9793 363.912 21.95C363.721 21.9207 363.508 21.8767 363.274 21.818V19.706ZM378.7 17.22C377.732 17.22 376.816 17.066 375.95 16.758C375.085 16.4353 374.344 15.9587 373.728 15.328L374.63 13.7C375.29 14.2867 375.95 14.712 376.61 14.976C377.285 15.24 377.952 15.372 378.612 15.372C379.287 15.372 379.837 15.2473 380.262 14.998C380.688 14.734 380.9 14.3527 380.9 13.854C380.9 13.4873 380.79 13.216 380.57 13.04C380.35 12.864 380.028 12.71 379.602 12.578C379.192 12.446 378.693 12.2993 378.106 12.138C377.285 11.8887 376.596 11.632 376.038 11.368C375.481 11.0893 375.063 10.752 374.784 10.356C374.506 9.96 374.366 9.454 374.366 8.838C374.366 8.09 374.557 7.452 374.938 6.924C375.32 6.396 375.848 5.99267 376.522 5.714C377.212 5.43533 378.004 5.296 378.898 5.296C379.734 5.296 380.504 5.428 381.208 5.692C381.927 5.94133 382.558 6.33733 383.1 6.88L382.066 8.486C381.553 8.01667 381.025 7.672 380.482 7.452C379.954 7.232 379.382 7.122 378.766 7.122C378.414 7.122 378.077 7.166 377.754 7.254C377.432 7.32733 377.16 7.474 376.94 7.694C376.735 7.89933 376.632 8.19267 376.632 8.574C376.632 8.882 376.72 9.13133 376.896 9.322C377.072 9.51267 377.336 9.674 377.688 9.806C378.04 9.938 378.473 10.0847 378.986 10.246C379.881 10.51 380.644 10.774 381.274 11.038C381.905 11.2873 382.389 11.6173 382.726 12.028C383.078 12.424 383.254 12.974 383.254 13.678C383.254 14.7927 382.836 15.6653 382 16.296C381.179 16.912 380.079 17.22 378.7 17.22ZM391.795 16.406C391.59 16.5087 391.333 16.6187 391.025 16.736C390.717 16.8533 390.365 16.956 389.969 17.044C389.588 17.132 389.192 17.176 388.781 17.176C388.283 17.176 387.821 17.088 387.395 16.912C386.97 16.736 386.625 16.4573 386.361 16.076C386.112 15.68 385.987 15.174 385.987 14.558V7.364H384.469V5.494H385.987V1.71H388.407V5.494H390.915V7.364H388.407V13.788C388.437 14.184 388.561 14.4773 388.781 14.668C389.016 14.8587 389.302 14.954 389.639 14.954C389.977 14.954 390.299 14.8953 390.607 14.778C390.915 14.6607 391.143 14.5653 391.289 14.492L391.795 16.406ZM398.535 17.22C397.64 17.22 396.826 17.066 396.093 16.758C395.374 16.4353 394.751 16.0027 394.223 15.46C393.695 14.9027 393.284 14.272 392.991 13.568C392.712 12.8493 392.573 12.0867 392.573 11.28C392.573 10.1947 392.822 9.20467 393.321 8.31C393.82 7.40067 394.516 6.67467 395.411 6.132C396.306 5.57467 397.354 5.296 398.557 5.296C399.76 5.296 400.794 5.57467 401.659 6.132C402.539 6.67467 403.221 7.39333 403.705 8.288C404.189 9.18267 404.431 10.1433 404.431 11.17C404.431 11.346 404.424 11.5147 404.409 11.676C404.394 11.8227 404.38 11.9473 404.365 12.05H395.147C395.191 12.7247 395.374 13.3187 395.697 13.832C396.034 14.3307 396.46 14.7267 396.973 15.02C397.486 15.2987 398.036 15.438 398.623 15.438C399.268 15.438 399.877 15.2767 400.449 14.954C401.036 14.6313 401.432 14.206 401.637 13.678L403.705 14.272C403.456 14.8293 403.074 15.3353 402.561 15.79C402.062 16.23 401.468 16.582 400.779 16.846C400.09 17.0953 399.342 17.22 398.535 17.22ZM395.081 10.444H402.033C401.989 9.784 401.798 9.20467 401.461 8.706C401.138 8.19267 400.72 7.79667 400.207 7.518C399.708 7.22467 399.151 7.078 398.535 7.078C397.934 7.078 397.376 7.22467 396.863 7.518C396.364 7.79667 395.954 8.19267 395.631 8.706C395.308 9.20467 395.125 9.784 395.081 10.444ZM424.005 17H421.585V10.554C421.585 9.48333 421.409 8.69867 421.057 8.2C420.705 7.70133 420.192 7.452 419.517 7.452C418.842 7.452 418.212 7.70867 417.625 8.222C417.053 8.72067 416.65 9.37333 416.415 10.18V17H413.995V10.554C413.995 9.48333 413.819 8.69867 413.467 8.2C413.115 7.70133 412.609 7.452 411.949 7.452C411.274 7.452 410.644 7.70133 410.057 8.2C409.485 8.69867 409.074 9.35133 408.825 10.158V17H406.405V5.494H408.605V7.804C409.06 6.99733 409.654 6.38133 410.387 5.956C411.135 5.516 411.986 5.296 412.939 5.296C413.892 5.296 414.64 5.54533 415.183 6.044C415.74 6.54267 416.085 7.166 416.217 7.914C416.716 7.06333 417.324 6.418 418.043 5.978C418.776 5.52333 419.612 5.296 420.551 5.296C421.226 5.296 421.79 5.42067 422.245 5.67C422.7 5.91933 423.052 6.264 423.301 6.704C423.55 7.12933 423.726 7.628 423.829 8.2C423.946 8.75733 424.005 9.35133 424.005 9.982V17ZM430.886 17.22C429.918 17.22 429.001 17.066 428.136 16.758C427.27 16.4353 426.53 15.9587 425.914 15.328L426.816 13.7C427.476 14.2867 428.136 14.712 428.796 14.976C429.47 15.24 430.138 15.372 430.798 15.372C431.472 15.372 432.022 15.2473 432.448 14.998C432.873 14.734 433.086 14.3527 433.086 13.854C433.086 13.4873 432.976 13.216 432.756 13.04C432.536 12.864 432.213 12.71 431.788 12.578C431.377 12.446 430.878 12.2993 430.292 12.138C429.47 11.8887 428.781 11.632 428.224 11.368C427.666 11.0893 427.248 10.752 426.97 10.356C426.691 9.96 426.552 9.454 426.552 8.838C426.552 8.09 426.742 7.452 427.124 6.924C427.505 6.396 428.033 5.99267 428.708 5.714C429.397 5.43533 430.189 5.296 431.084 5.296C431.92 5.296 432.69 5.428 433.394 5.692C434.112 5.94133 434.743 6.33733 435.286 6.88L434.252 8.486C433.738 8.01667 433.21 7.672 432.668 7.452C432.14 7.232 431.568 7.122 430.952 7.122C430.6 7.122 430.262 7.166 429.94 7.254C429.617 7.32733 429.346 7.474 429.126 7.694C428.92 7.89933 428.818 8.19267 428.818 8.574C428.818 8.882 428.906 9.13133 429.082 9.322C429.258 9.51267 429.522 9.674 429.874 9.806C430.226 9.938 430.658 10.0847 431.172 10.246C432.066 10.51 432.829 10.774 433.46 11.038C434.09 11.2873 434.574 11.6173 434.912 12.028C435.264 12.424 435.44 12.974 435.44 13.678C435.44 14.7927 435.022 15.6653 434.186 16.296C433.364 16.912 432.264 17.22 430.886 17.22ZM74.7388 45.11C73.4921 45.11 72.4361 44.8973 71.5708 44.472C70.7201 44.0467 70.0308 43.4673 69.5028 42.734C68.9895 42.0007 68.6081 41.1647 68.3588 40.226C68.1241 39.2873 68.0068 38.312 68.0068 37.3V29.38H70.4708V37.3C70.4708 38.0187 70.5441 38.7153 70.6908 39.39C70.8375 40.05 71.0721 40.644 71.3948 41.172C71.7175 41.7 72.1501 42.118 72.6928 42.426C73.2501 42.734 73.9321 42.888 74.7388 42.888C75.5601 42.888 76.2421 42.734 76.7848 42.426C77.3421 42.1033 77.7748 41.678 78.0828 41.15C78.4055 40.6073 78.6401 40.006 78.7868 39.346C78.9335 38.686 79.0068 38.004 79.0068 37.3V29.38H81.4928V37.3C81.4928 38.3707 81.3608 39.3827 81.0968 40.336C80.8475 41.2747 80.4515 42.1033 79.9088 42.822C79.3808 43.526 78.6915 44.0833 77.8408 44.494C76.9901 44.9047 75.9561 45.11 74.7388 45.11ZM94.5864 45H92.1664V38.554C92.1664 37.4833 91.9904 36.6987 91.6384 36.2C91.3011 35.7013 90.7951 35.452 90.1204 35.452C89.6511 35.452 89.1817 35.5693 88.7124 35.804C88.2577 36.0387 87.8471 36.3613 87.4804 36.772C87.1137 37.168 86.8497 37.63 86.6884 38.158V45H84.2684V33.494H86.4684V35.804C86.7617 35.2907 87.1431 34.8507 87.6124 34.484C88.0964 34.1027 88.6391 33.8093 89.2404 33.604C89.8417 33.3987 90.4797 33.296 91.1544 33.296C91.8437 33.296 92.4084 33.4207 92.8484 33.67C93.3031 33.9193 93.6551 34.264 93.9044 34.704C94.1684 35.1293 94.3444 35.628 94.4324 36.2C94.5351 36.7573 94.5864 37.3513 94.5864 37.982V45ZM97.3954 45V33.494H99.8154V45H97.3954ZM97.3954 31.602V28.94H99.8154V31.602H97.3954ZM105.935 45L101.557 33.494H104.065L107.343 42.756L110.621 33.494H112.953L108.575 45H105.935ZM119.518 45.22C118.623 45.22 117.809 45.066 117.076 44.758C116.357 44.4353 115.734 44.0027 115.206 43.46C114.678 42.9027 114.267 42.272 113.974 41.568C113.695 40.8493 113.556 40.0867 113.556 39.28C113.556 38.1947 113.805 37.2047 114.304 36.31C114.802 35.4007 115.499 34.6747 116.394 34.132C117.288 33.5747 118.337 33.296 119.54 33.296C120.742 33.296 121.776 33.5747 122.642 34.132C123.522 34.6747 124.204 35.3933 124.688 36.288C125.172 37.1827 125.414 38.1433 125.414 39.17C125.414 39.346 125.406 39.5147 125.392 39.676C125.377 39.8227 125.362 39.9473 125.348 40.05H116.13C116.174 40.7247 116.357 41.3187 116.68 41.832C117.017 42.3307 117.442 42.7267 117.956 43.02C118.469 43.2987 119.019 43.438 119.606 43.438C120.251 43.438 120.86 43.2767 121.432 42.954C122.018 42.6313 122.414 42.206 122.62 41.678L124.688 42.272C124.438 42.8293 124.057 43.3353 123.544 43.79C123.045 44.23 122.451 44.582 121.762 44.846C121.072 45.0953 120.324 45.22 119.518 45.22ZM116.064 38.444H123.016C122.972 37.784 122.781 37.2047 122.444 36.706C122.121 36.1927 121.703 35.7967 121.19 35.518C120.691 35.2247 120.134 35.078 119.518 35.078C118.916 35.078 118.359 35.2247 117.846 35.518C117.347 35.7967 116.936 36.1927 116.614 36.706C116.291 37.2047 116.108 37.784 116.064 38.444ZM133.856 35.584C132.917 35.5987 132.081 35.8113 131.348 36.222C130.629 36.6327 130.116 37.212 129.808 37.96V45H127.388V33.494H129.632V36.068C130.028 35.276 130.548 34.6453 131.194 34.176C131.839 33.692 132.521 33.428 133.24 33.384C133.386 33.384 133.504 33.384 133.592 33.384C133.694 33.384 133.782 33.3913 133.856 33.406V35.584ZM139.708 45.22C138.74 45.22 137.823 45.066 136.958 44.758C136.093 44.4353 135.352 43.9587 134.736 43.328L135.638 41.7C136.298 42.2867 136.958 42.712 137.618 42.976C138.293 43.24 138.96 43.372 139.62 43.372C140.295 43.372 140.845 43.2473 141.27 42.998C141.695 42.734 141.908 42.3527 141.908 41.854C141.908 41.4873 141.798 41.216 141.578 41.04C141.358 40.864 141.035 40.71 140.61 40.578C140.199 40.446 139.701 40.2993 139.114 40.138C138.293 39.8887 137.603 39.632 137.046 39.368C136.489 39.0893 136.071 38.752 135.792 38.356C135.513 37.96 135.374 37.454 135.374 36.838C135.374 36.09 135.565 35.452 135.946 34.924C136.327 34.396 136.855 33.9927 137.53 33.714C138.219 33.4353 139.011 33.296 139.906 33.296C140.742 33.296 141.512 33.428 142.216 33.692C142.935 33.9413 143.565 34.3373 144.108 34.88L143.074 36.486C142.561 36.0167 142.033 35.672 141.49 35.452C140.962 35.232 140.39 35.122 139.774 35.122C139.422 35.122 139.085 35.166 138.762 35.254C138.439 35.3273 138.168 35.474 137.948 35.694C137.743 35.8993 137.64 36.1927 137.64 36.574C137.64 36.882 137.728 37.1313 137.904 37.322C138.08 37.5127 138.344 37.674 138.696 37.806C139.048 37.938 139.481 38.0847 139.994 38.246C140.889 38.51 141.651 38.774 142.282 39.038C142.913 39.2873 143.397 39.6173 143.734 40.028C144.086 40.424 144.262 40.974 144.262 41.678C144.262 42.7927 143.844 43.6653 143.008 44.296C142.187 44.912 141.087 45.22 139.708 45.22ZM146.423 45V33.494H148.843V45H146.423ZM146.423 31.602V28.94H148.843V31.602H146.423ZM158.153 44.406C157.947 44.5087 157.691 44.6187 157.383 44.736C157.075 44.8533 156.723 44.956 156.327 45.044C155.945 45.132 155.549 45.176 155.139 45.176C154.64 45.176 154.178 45.088 153.753 44.912C153.327 44.736 152.983 44.4573 152.719 44.076C152.469 43.68 152.345 43.174 152.345 42.558V35.364H150.827V33.494H152.345V29.71H154.765V33.494H157.273V35.364H154.765V41.788C154.794 42.184 154.919 42.4773 155.139 42.668C155.373 42.8587 155.659 42.954 155.997 42.954C156.334 42.954 156.657 42.8953 156.965 42.778C157.273 42.6607 157.5 42.5653 157.647 42.492L158.153 44.406ZM160.203 47.706C160.423 47.7353 160.636 47.7647 160.841 47.794C161.061 47.838 161.237 47.86 161.369 47.86C161.619 47.86 161.831 47.7793 162.007 47.618C162.198 47.4713 162.389 47.1927 162.579 46.782C162.77 46.3713 163.005 45.7773 163.283 45L158.553 33.494H161.083L164.603 42.536L167.727 33.494H170.059L164.845 47.662C164.684 48.0873 164.449 48.476 164.141 48.828C163.833 49.1947 163.452 49.4807 162.997 49.686C162.543 49.8913 162.007 49.994 161.391 49.994C161.215 49.994 161.032 49.9793 160.841 49.95C160.651 49.9207 160.438 49.8767 160.203 49.818V47.706ZM181.864 45.22C180.955 45.22 180.141 45.066 179.422 44.758C178.704 44.4353 178.08 43.9953 177.552 43.438C177.039 42.8807 176.643 42.25 176.364 41.546C176.086 40.8273 175.946 40.0647 175.946 39.258C175.946 38.4513 176.086 37.6887 176.364 36.97C176.643 36.2513 177.039 35.6207 177.552 35.078C178.08 34.5207 178.704 34.088 179.422 33.78C180.156 33.4573 180.97 33.296 181.864 33.296C182.759 33.296 183.566 33.4573 184.284 33.78C185.018 34.088 185.641 34.5207 186.154 35.078C186.682 35.6207 187.086 36.2513 187.364 36.97C187.643 37.6887 187.782 38.4513 187.782 39.258C187.782 40.0647 187.643 40.8273 187.364 41.546C187.086 42.25 186.682 42.8807 186.154 43.438C185.641 43.9953 185.018 44.4353 184.284 44.758C183.566 45.066 182.759 45.22 181.864 45.22ZM178.432 39.28C178.432 40.0133 178.586 40.6733 178.894 41.26C179.202 41.8467 179.613 42.3087 180.126 42.646C180.64 42.9833 181.219 43.152 181.864 43.152C182.495 43.152 183.067 42.9833 183.58 42.646C184.108 42.294 184.526 41.8247 184.834 41.238C185.142 40.6367 185.296 39.9767 185.296 39.258C185.296 38.5247 185.142 37.8647 184.834 37.278C184.526 36.6913 184.108 36.2293 183.58 35.892C183.067 35.54 182.495 35.364 181.864 35.364C181.219 35.364 180.64 35.54 180.126 35.892C179.613 36.244 179.202 36.7133 178.894 37.3C178.586 37.872 178.432 38.532 178.432 39.28ZM190.438 45V35.65H188.898V33.78H190.438V33.318C190.438 32.3793 190.585 31.5653 190.878 30.876C191.186 30.1867 191.612 29.6587 192.154 29.292C192.712 28.9107 193.364 28.72 194.112 28.72C194.582 28.72 195.044 28.786 195.498 28.918C195.953 29.0353 196.386 29.204 196.796 29.424L196.268 31.228C196.048 31.0813 195.784 30.9713 195.476 30.898C195.183 30.81 194.897 30.766 194.618 30.766C194.061 30.766 193.628 30.9787 193.32 31.404C193.012 31.8293 192.858 32.4453 192.858 33.252V33.78H195.806V35.65H192.858V45H190.438ZM215.167 40.974C215.167 41.81 214.947 42.5287 214.507 43.13C214.082 43.7313 213.502 44.1933 212.769 44.516C212.036 44.8387 211.229 45 210.349 45H202.891V29.38H210.943C211.676 29.38 212.307 29.578 212.835 29.974C213.378 30.3553 213.788 30.854 214.067 31.47C214.36 32.0713 214.507 32.702 214.507 33.362C214.507 34.1247 214.309 34.8433 213.913 35.518C213.532 36.178 212.982 36.6693 212.263 36.992C213.158 37.256 213.862 37.74 214.375 38.444C214.903 39.1333 215.167 39.9767 215.167 40.974ZM212.637 40.512C212.637 40.072 212.542 39.676 212.351 39.324C212.175 38.9573 211.926 38.664 211.603 38.444C211.295 38.2093 210.928 38.092 210.503 38.092H205.355V42.866H210.349C210.789 42.866 211.178 42.7633 211.515 42.558C211.867 42.338 212.138 42.052 212.329 41.7C212.534 41.3333 212.637 40.9373 212.637 40.512ZM205.355 31.514V36.112H209.887C210.298 36.112 210.664 36.0167 210.987 35.826C211.31 35.6207 211.566 35.3493 211.757 35.012C211.948 34.66 212.043 34.264 212.043 33.824C212.043 33.3693 211.955 32.9733 211.779 32.636C211.603 32.284 211.361 32.0127 211.053 31.822C210.76 31.6167 210.415 31.514 210.019 31.514H205.355ZM223.897 35.584C222.958 35.5987 222.122 35.8113 221.389 36.222C220.67 36.6327 220.157 37.212 219.849 37.96V45H217.429V33.494H219.673V36.068C220.069 35.276 220.589 34.6453 221.235 34.176C221.88 33.692 222.562 33.428 223.281 33.384C223.427 33.384 223.545 33.384 223.633 33.384C223.735 33.384 223.823 33.3913 223.897 33.406V35.584ZM225.657 45V33.494H228.077V45H225.657ZM225.657 31.602V28.94H228.077V31.602H225.657ZM237.387 44.406C237.182 44.5087 236.925 44.6187 236.617 44.736C236.309 44.8533 235.957 44.956 235.561 45.044C235.18 45.132 234.784 45.176 234.373 45.176C233.875 45.176 233.413 45.088 232.987 44.912C232.562 44.736 232.217 44.4573 231.953 44.076C231.704 43.68 231.579 43.174 231.579 42.558V35.364H230.061V33.494H231.579V29.71H233.999V33.494H236.507V35.364H233.999V41.788C234.029 42.184 234.153 42.4773 234.373 42.668C234.608 42.8587 234.894 42.954 235.231 42.954C235.569 42.954 235.891 42.8953 236.199 42.778C236.507 42.6607 236.735 42.5653 236.881 42.492L237.387 44.406ZM239.063 45V33.494H241.483V45H239.063ZM239.063 31.602V28.94H241.483V31.602H239.063ZM248.483 45.22C247.515 45.22 246.599 45.066 245.733 44.758C244.868 44.4353 244.127 43.9587 243.511 43.328L244.413 41.7C245.073 42.2867 245.733 42.712 246.393 42.976C247.068 43.24 247.735 43.372 248.395 43.372C249.07 43.372 249.62 43.2473 250.045 42.998C250.471 42.734 250.683 42.3527 250.683 41.854C250.683 41.4873 250.573 41.216 250.353 41.04C250.133 40.864 249.811 40.71 249.385 40.578C248.975 40.446 248.476 40.2993 247.889 40.138C247.068 39.8887 246.379 39.632 245.821 39.368C245.264 39.0893 244.846 38.752 244.567 38.356C244.289 37.96 244.149 37.454 244.149 36.838C244.149 36.09 244.34 35.452 244.721 34.924C245.103 34.396 245.631 33.9927 246.305 33.714C246.995 33.4353 247.787 33.296 248.681 33.296C249.517 33.296 250.287 33.428 250.991 33.692C251.71 33.9413 252.341 34.3373 252.883 34.88L251.849 36.486C251.336 36.0167 250.808 35.672 250.265 35.452C249.737 35.232 249.165 35.122 248.549 35.122C248.197 35.122 247.86 35.166 247.537 35.254C247.215 35.3273 246.943 35.474 246.723 35.694C246.518 35.8993 246.415 36.1927 246.415 36.574C246.415 36.882 246.503 37.1313 246.679 37.322C246.855 37.5127 247.119 37.674 247.471 37.806C247.823 37.938 248.256 38.0847 248.769 38.246C249.664 38.51 250.427 38.774 251.057 39.038C251.688 39.2873 252.172 39.6173 252.509 40.028C252.861 40.424 253.037 40.974 253.037 41.678C253.037 42.7927 252.619 43.6653 251.783 44.296C250.962 44.912 249.862 45.22 248.483 45.22ZM265.516 45H263.096V38.554C263.096 37.5127 262.905 36.7353 262.524 36.222C262.143 35.7087 261.607 35.452 260.918 35.452C260.493 35.452 260.053 35.5693 259.598 35.804C259.143 36.0387 258.74 36.3613 258.388 36.772C258.036 37.168 257.779 37.63 257.618 38.158V45H255.198V28.94H257.618V35.804C258.058 35.0267 258.659 34.418 259.422 33.978C260.185 33.5233 261.006 33.296 261.886 33.296C262.605 33.296 263.199 33.4207 263.668 33.67C264.137 33.9193 264.504 34.264 264.768 34.704C265.047 35.1293 265.237 35.628 265.34 36.2C265.457 36.7573 265.516 37.3513 265.516 37.982V45ZM273.079 37.08C273.079 36.1267 273.247 35.1953 273.585 34.286C273.922 33.362 274.413 32.526 275.059 31.778C275.719 31.0153 276.518 30.414 277.457 29.974C278.395 29.5193 279.459 29.292 280.647 29.292C282.055 29.292 283.272 29.6147 284.299 30.26C285.325 30.8907 286.088 31.7047 286.587 32.702L284.651 34C284.357 33.3693 283.983 32.8707 283.529 32.504C283.089 32.1373 282.605 31.8807 282.077 31.734C281.563 31.5873 281.057 31.514 280.559 31.514C279.737 31.514 279.019 31.6827 278.403 32.02C277.787 32.3427 277.266 32.7753 276.841 33.318C276.43 33.8607 276.115 34.4693 275.895 35.144C275.689 35.8187 275.587 36.4933 275.587 37.168C275.587 37.916 275.711 38.642 275.961 39.346C276.21 40.0353 276.555 40.6513 276.995 41.194C277.449 41.722 277.985 42.14 278.601 42.448C279.217 42.756 279.891 42.91 280.625 42.91C281.123 42.91 281.644 42.822 282.187 42.646C282.729 42.47 283.228 42.1987 283.683 41.832C284.152 41.4507 284.519 40.952 284.783 40.336L286.829 41.502C286.506 42.2793 286 42.9393 285.311 43.482C284.636 44.0247 283.873 44.4353 283.023 44.714C282.187 44.9927 281.358 45.132 280.537 45.132C279.437 45.132 278.432 44.9047 277.523 44.45C276.613 43.9807 275.829 43.3647 275.169 42.602C274.509 41.8247 273.995 40.9593 273.629 40.006C273.262 39.038 273.079 38.0627 273.079 37.08ZM293.948 45.22C293.039 45.22 292.225 45.066 291.506 44.758C290.788 44.4353 290.164 43.9953 289.636 43.438C289.123 42.8807 288.727 42.25 288.448 41.546C288.17 40.8273 288.03 40.0647 288.03 39.258C288.03 38.4513 288.17 37.6887 288.448 36.97C288.727 36.2513 289.123 35.6207 289.636 35.078C290.164 34.5207 290.788 34.088 291.506 33.78C292.24 33.4573 293.054 33.296 293.948 33.296C294.843 33.296 295.65 33.4573 296.368 33.78C297.102 34.088 297.725 34.5207 298.238 35.078C298.766 35.6207 299.17 36.2513 299.448 36.97C299.727 37.6887 299.866 38.4513 299.866 39.258C299.866 40.0647 299.727 40.8273 299.448 41.546C299.17 42.25 298.766 42.8807 298.238 43.438C297.725 43.9953 297.102 44.4353 296.368 44.758C295.65 45.066 294.843 45.22 293.948 45.22ZM290.516 39.28C290.516 40.0133 290.67 40.6733 290.978 41.26C291.286 41.8467 291.697 42.3087 292.21 42.646C292.724 42.9833 293.303 43.152 293.948 43.152C294.579 43.152 295.151 42.9833 295.664 42.646C296.192 42.294 296.61 41.8247 296.918 41.238C297.226 40.6367 297.38 39.9767 297.38 39.258C297.38 38.5247 297.226 37.8647 296.918 37.278C296.61 36.6913 296.192 36.2293 295.664 35.892C295.151 35.54 294.579 35.364 293.948 35.364C293.303 35.364 292.724 35.54 292.21 35.892C291.697 36.244 291.286 36.7133 290.978 37.3C290.67 37.872 290.516 38.532 290.516 39.28ZM302.035 28.94H304.455V41.678C304.455 42.2647 304.543 42.6387 304.719 42.8C304.895 42.9613 305.115 43.042 305.379 43.042C305.672 43.042 305.943 43.0127 306.193 42.954C306.457 42.8953 306.684 42.822 306.875 42.734L307.227 44.648C306.875 44.7947 306.457 44.9193 305.973 45.022C305.489 45.1247 305.056 45.176 304.675 45.176C303.853 45.176 303.208 44.9487 302.739 44.494C302.269 44.0247 302.035 43.3793 302.035 42.558V28.94ZM308.52 40.534V33.494H310.94V40.05C310.94 41.0767 311.123 41.854 311.49 42.382C311.871 42.8953 312.421 43.152 313.14 43.152C313.594 43.152 314.034 43.0567 314.46 42.866C314.9 42.6753 315.296 42.3967 315.648 42.03C316.014 41.6487 316.308 41.194 316.528 40.666V33.494H318.948V42.272C318.948 42.5507 318.999 42.7487 319.102 42.866C319.204 42.9833 319.373 43.0493 319.608 43.064V45C319.358 45.044 319.153 45.0733 318.992 45.088C318.83 45.1027 318.676 45.11 318.53 45.11C318.09 45.11 317.723 44.9927 317.43 44.758C317.136 44.5087 316.968 44.1933 316.924 43.812L316.88 42.668C316.366 43.504 315.699 44.142 314.878 44.582C314.056 45.0073 313.154 45.22 312.172 45.22C310.969 45.22 310.06 44.824 309.444 44.032C308.828 43.24 308.52 42.074 308.52 40.534ZM339.636 45H337.216V38.554C337.216 37.4833 337.04 36.6987 336.688 36.2C336.336 35.7013 335.823 35.452 335.148 35.452C334.473 35.452 333.843 35.7087 333.256 36.222C332.684 36.7207 332.281 37.3733 332.046 38.18V45H329.626V38.554C329.626 37.4833 329.45 36.6987 329.098 36.2C328.746 35.7013 328.24 35.452 327.58 35.452C326.905 35.452 326.275 35.7013 325.688 36.2C325.116 36.6987 324.705 37.3513 324.456 38.158V45H322.036V33.494H324.236V35.804C324.691 34.9973 325.285 34.3813 326.018 33.956C326.766 33.516 327.617 33.296 328.57 33.296C329.523 33.296 330.271 33.5453 330.814 34.044C331.371 34.5427 331.716 35.166 331.848 35.914C332.347 35.0633 332.955 34.418 333.674 33.978C334.407 33.5233 335.243 33.296 336.182 33.296C336.857 33.296 337.421 33.4207 337.876 33.67C338.331 33.9193 338.683 34.264 338.932 34.704C339.181 35.1293 339.357 35.628 339.46 36.2C339.577 36.7573 339.636 37.3513 339.636 37.982V45ZM348.629 45.22C347.749 45.22 346.949 45.0147 346.231 44.604C345.527 44.1787 344.969 43.614 344.559 42.91V45H342.425V28.94H344.845V35.672C345.299 34.9387 345.864 34.3593 346.539 33.934C347.228 33.5087 348.035 33.296 348.959 33.296C349.721 33.296 350.418 33.4573 351.049 33.78C351.679 34.1027 352.215 34.5427 352.655 35.1C353.109 35.6573 353.454 36.2953 353.689 37.014C353.938 37.7327 354.063 38.4953 354.063 39.302C354.063 40.1087 353.923 40.8713 353.645 41.59C353.381 42.3087 352.999 42.9393 352.501 43.482C352.002 44.0247 351.423 44.45 350.763 44.758C350.117 45.066 349.406 45.22 348.629 45.22ZM347.991 43.152C348.519 43.152 349.003 43.0493 349.443 42.844C349.883 42.624 350.264 42.338 350.587 41.986C350.909 41.634 351.151 41.2233 351.313 40.754C351.489 40.2847 351.577 39.8007 351.577 39.302C351.577 38.6127 351.43 37.9673 351.137 37.366C350.858 36.7647 350.462 36.2807 349.949 35.914C349.435 35.5473 348.841 35.364 348.167 35.364C347.683 35.364 347.228 35.4813 346.803 35.716C346.377 35.936 345.996 36.2367 345.659 36.618C345.336 36.9847 345.065 37.3953 344.845 37.85V40.886C344.933 41.2233 345.087 41.5313 345.307 41.81C345.527 42.074 345.783 42.3087 346.077 42.514C346.37 42.7047 346.685 42.8587 347.023 42.976C347.36 43.0933 347.683 43.152 347.991 43.152ZM356.239 45V33.494H358.659V45H356.239ZM356.239 31.602V28.94H358.659V31.602H356.239ZM360.731 41.634C360.731 40.9007 360.937 40.2627 361.347 39.72C361.773 39.1627 362.352 38.7373 363.085 38.444C363.819 38.136 364.669 37.982 365.637 37.982C366.151 37.982 366.671 38.0187 367.199 38.092C367.742 38.1653 368.219 38.2827 368.629 38.444V37.718C368.629 36.9113 368.387 36.2807 367.903 35.826C367.419 35.3713 366.723 35.144 365.813 35.144C365.168 35.144 364.559 35.2613 363.987 35.496C363.415 35.716 362.807 36.0313 362.161 36.442L361.347 34.814C362.11 34.3007 362.873 33.9193 363.635 33.67C364.413 33.4207 365.227 33.296 366.077 33.296C367.617 33.296 368.827 33.7067 369.707 34.528C370.602 35.3347 371.049 36.486 371.049 37.982V42.272C371.049 42.5507 371.093 42.7487 371.181 42.866C371.284 42.9833 371.453 43.0493 371.687 43.064V45C371.467 45.044 371.269 45.0733 371.093 45.088C370.917 45.1027 370.771 45.11 370.653 45.11C370.14 45.11 369.751 44.9853 369.487 44.736C369.223 44.4867 369.069 44.1933 369.025 43.856L368.959 43.196C368.461 43.8413 367.823 44.34 367.045 44.692C366.268 45.044 365.483 45.22 364.691 45.22C363.929 45.22 363.247 45.066 362.645 44.758C362.044 44.4353 361.575 44.0027 361.237 43.46C360.9 42.9173 360.731 42.3087 360.731 41.634ZM368.057 42.338C368.233 42.1473 368.373 41.9567 368.475 41.766C368.578 41.5753 368.629 41.4067 368.629 41.26V39.94C368.219 39.7787 367.786 39.6613 367.331 39.588C366.877 39.5 366.429 39.456 365.989 39.456C365.109 39.456 364.391 39.632 363.833 39.984C363.291 40.336 363.019 40.82 363.019 41.436C363.019 41.7733 363.107 42.096 363.283 42.404C363.474 42.712 363.738 42.9613 364.075 43.152C364.427 43.3427 364.86 43.438 365.373 43.438C365.901 43.438 366.407 43.3353 366.891 43.13C367.375 42.9247 367.764 42.6607 368.057 42.338Z" fill="#DEDEDE"/>
</g>
<defs>
<filter id="filter0_di_4_171" x="0.611572" y="0.939941" width="438.828" height="57.0541" filterUnits="userSpaceOnUse" color-interpolation-filters="sRGB">
<feFlood flood-opacity="0" result="BackgroundImageFix"/>
<feColorMatrix in="SourceAlpha" type="matrix" values="0 0 0 0 0 0 0 0 0 0 0 0 0 0 0 0 0 0 127 0" result="hardAlpha"/>
<feOffset dy="4"/>
<feGaussianBlur stdDeviation="2"/>
<feComposite in2="hardAlpha" operator="out"/>
<feColorMatrix type="matrix" values="0 0 0 0 0 0 0 0 0 0 0 0 0 0 0 0 0 0 0.25 0"/>
<feBlend mode="normal" in2="BackgroundImageFix" result="effect1_dropShadow_4_171"/>
<feBlend mode="normal" in="SourceGraphic" in2="effect1_dropShadow_4_171" result="shape"/>
<feColorMatrix in="SourceAlpha" type="matrix" values="0 0 0 0 0 0 0 0 0 0 0 0 0 0 0 0 0 0 127 0" result="hardAlpha"/>
<feOffset dy="4"/>
<feGaussianBlur stdDeviation="2"/>
<feComposite in2="hardAlpha" operator="arithmetic" k2="-1" k3="1"/>
<feColorMatrix type="matrix" values="0 0 0 0 0 0 0 0 0 0 0 0 0 0 0 0 0 0 0.25 0"/>
<feBlend mode="normal" in2="shape" result="effect2_innerShadow_4_171"/>
</filter>
</defs>
</svg>
