<svg width="40" height="40" viewBox="0 0 40 32" fill="none" xmlns="http://www.w3.org/2000/svg">
<g clip-path="url(#clip0_4_189)">
<path d="M19.9821 0.439332C8.94197 0.435761 0 7.58576 0 16.4108C0 23.3893 5.59375 29.3215 13.3839 31.5C14.433 31.7108 14.2723 31.1143 14.2723 30.7072V27.9393C8.21429 28.5072 7.96875 25.3 7.5625 24.7643C6.74107 23.6429 4.79911 23.3572 5.37946 22.8215C6.75893 22.2536 8.16518 22.9643 9.79464 24.8893C10.9732 26.2858 13.2723 26.05 14.4375 25.8179C14.692 24.9786 15.2366 24.2286 15.9866 23.6465C9.70982 22.7465 7.09375 19.6822 7.09375 16.0393C7.09375 14.2715 7.82143 12.6465 9.25 11.3358C8.33929 9.17505 9.33482 7.32505 9.46875 7.05005C12.0625 6.86433 14.7589 8.53576 14.9688 8.6679C16.442 8.35005 18.125 8.18219 20.0089 8.18219C21.9018 8.18219 23.5893 8.35719 25.0759 8.67862C25.5804 8.37148 28.0804 6.93576 30.4911 7.11076C30.6205 7.38576 31.5938 9.1929 30.7366 11.325C32.183 12.6393 32.9196 14.2786 32.9196 16.05C32.9196 19.7 30.2857 22.7679 23.9911 23.6536C24.5302 24.0778 24.9583 24.5837 25.2504 25.1417C25.5424 25.6997 25.6925 26.2987 25.692 26.9036V30.9215C25.7277 31.2429 25.692 31.5608 26.3616 31.5608C34.2679 29.4286 39.9598 23.4536 39.9598 16.4143C39.9598 7.58576 31.0134 0.439332 19.9821 0.439332Z" fill="black"/>
</g>
<defs>
<clipPath id="clip0_4_189">
<rect width="40" height="32" fill="white"/>
</clipPath>
</defs>
</svg>
