<svg width="40" height="40" viewBox="0 0 40 33" fill="none" xmlns="http://www.w3.org/2000/svg">
<path d="M36.4286 1.76782H3.57142C2.78125 1.76782 2.14285 2.2945 2.14285 2.94639V30.0535C2.14285 30.7054 2.78125 31.2321 3.57142 31.2321H36.4286C37.2187 31.2321 37.8571 30.7054 37.8571 30.0535V2.94639C37.8571 2.2945 37.2187 1.76782 36.4286 1.76782ZM12.7366 26.8751H7.4375V12.8132H12.7366V26.8751ZM10.0893 10.8907C9.48181 10.8907 8.88798 10.7421 8.38289 10.4637C7.87779 10.1852 7.48412 9.78948 7.25165 9.32647C7.01918 8.86345 6.95836 8.35396 7.07687 7.86243C7.19538 7.37089 7.48791 6.91939 7.91745 6.56502C8.347 6.21064 8.89428 5.96931 9.49008 5.87153C10.0859 5.77376 10.7034 5.82394 11.2647 6.01573C11.8259 6.20752 12.3056 6.5323 12.6431 6.949C12.9806 7.3657 13.1607 7.85561 13.1607 8.35677C13.1562 9.75633 11.7812 10.8907 10.0893 10.8907ZM32.5759 26.8751H27.2812V20.0357C27.2812 18.4041 27.2455 16.3084 24.5268 16.3084C21.7723 16.3084 21.3482 18.0837 21.3482 19.9178V26.8751H16.058V12.8132H21.1384V14.7358H21.2098C21.9152 13.6309 23.6429 12.4634 26.2232 12.4634C31.5893 12.4634 32.5759 15.3766 32.5759 19.1628V26.8751Z" fill="black"/>
</svg>
