<svg width="40" height="40" viewBox="0 0 40 34" fill="none" xmlns="http://www.w3.org/2000/svg">
<g clip-path="url(#clip0_4_181)">
<path d="M36.2634 5.11523L38.0179 7.03153L36.7857 7.84738L38.0223 7.03153L36.2679 5.11523H36.2634Z" fill="#E6E6E6"/>
<path d="M38.5714 3.64282H1.42857C0.638393 3.64282 0 4.18546 0 4.85711V29.1428C0 29.8145 0.638393 30.3571 1.42857 30.3571H38.5714C39.3616 30.3571 40 29.8145 40 29.1428V4.85711C40 4.18546 39.3616 3.64282 38.5714 3.64282ZM34.3527 6.37876L20 15.8616L5.64732 6.37876H34.3527ZM36.7857 7.84729V27.625H3.21429V7.84729L1.98214 7.03144L3.20982 7.84349L18.4598 17.9221C18.8984 18.2117 19.4379 18.3689 19.9933 18.3689C20.5487 18.3689 21.0882 18.2117 21.5268 17.9221L36.7857 7.84729L38.0179 7.03144L36.2634 5.11514H36.2679L38.0223 7.03144L36.7857 7.84729Z" fill="black"/>
</g>
<defs>
<clipPath id="clip0_4_181">
<rect width="40" height="34" fill="white"/>
</clipPath>
</defs>
</svg>
