<svg width="228" height="35" viewBox="0 0 228 35" fill="none" xmlns="http://www.w3.org/2000/svg">
<g filter="url(#filter0_di_4_172)">
<path d="M4.84955 26V0.439999H9.81755V26H4.84955ZM30.3783 7.136C30.2103 6.968 29.8983 6.74 29.4423 6.452C29.0103 6.164 28.4703 5.888 27.8223 5.624C27.1983 5.36 26.5143 5.132 25.7703 4.94C25.0263 4.724 24.2703 4.616 23.5023 4.616C22.1583 4.616 21.1383 4.868 20.4423 5.372C19.7703 5.876 19.4343 6.584 19.4343 7.496C19.4343 8.192 19.6503 8.744 20.0823 9.152C20.5143 9.56 21.1623 9.908 22.0263 10.196C22.8903 10.484 23.9703 10.796 25.2663 11.132C26.9463 11.54 28.3983 12.044 29.6223 12.644C30.8703 13.22 31.8183 13.988 32.4663 14.948C33.1383 15.884 33.4743 17.132 33.4743 18.692C33.4743 20.06 33.2223 21.236 32.7183 22.22C32.2143 23.18 31.5183 23.96 30.6303 24.56C29.7423 25.16 28.7343 25.604 27.6063 25.892C26.4783 26.156 25.2783 26.288 24.0063 26.288C22.7343 26.288 21.4623 26.156 20.1903 25.892C18.9183 25.628 17.6943 25.256 16.5183 24.776C15.3423 24.272 14.2623 23.672 13.2783 22.976L15.4743 18.692C15.6903 18.908 16.0743 19.196 16.6263 19.556C17.1783 19.892 17.8503 20.24 18.6423 20.6C19.4343 20.936 20.2983 21.224 21.2343 21.464C22.1703 21.704 23.1183 21.824 24.0783 21.824C25.4223 21.824 26.4423 21.596 27.1383 21.14C27.8343 20.684 28.1823 20.036 28.1823 19.196C28.1823 18.428 27.9063 17.828 27.3543 17.396C26.8023 16.964 26.0343 16.592 25.0503 16.28C24.0663 15.944 22.9023 15.584 21.5583 15.2C19.9503 14.744 18.6063 14.24 17.5263 13.688C16.4463 13.112 15.6423 12.392 15.1143 11.528C14.5863 10.664 14.3223 9.584 14.3223 8.288C14.3223 6.536 14.7303 5.072 15.5463 3.896C16.3863 2.696 17.5143 1.796 18.9303 1.196C20.3463 0.571999 21.9183 0.259999 23.6463 0.259999C24.8463 0.259999 25.9743 0.391999 27.0303 0.655998C28.1103 0.919999 29.1183 1.268 30.0543 1.7C30.9903 2.132 31.8303 2.6 32.5743 3.104L30.3783 7.136ZM58.0725 26V9.224L51.5205 21.716H48.7485L42.1965 9.224V26H37.2285V0.439999H42.5565L50.1165 14.984L57.7485 0.439999H63.0405V26H58.0725ZM75.3249 0.439999H80.3649L89.7609 26H84.6489L82.2729 19.628H73.3449L71.0049 26H65.8929L75.3249 0.439999ZM81.3729 16.136L77.8449 5.588L74.1729 16.136H81.3729ZM113.408 26V9.224L106.856 21.716H104.084L97.5324 9.224V26H92.5644V0.439999H97.8924L105.452 14.984L113.084 0.439999H118.376V26H113.408ZM132.361 26V0.439999H137.329V26H132.361ZM163.506 26V9.224L156.954 21.716H154.182L147.63 9.224V26H142.662V0.439999H147.99L155.55 14.984L163.182 0.439999H168.474V26H163.506ZM184.718 26.18C182.846 26.18 181.142 25.82 179.606 25.1C178.094 24.38 176.786 23.408 175.682 22.184C174.602 20.936 173.762 19.544 173.162 18.008C172.562 16.448 172.262 14.852 172.262 13.22C172.262 11.516 172.574 9.896 173.198 8.36C173.846 6.8 174.722 5.42 175.826 4.22C176.954 2.996 178.274 2.036 179.786 1.34C181.322 0.619998 183.002 0.259999 184.826 0.259999C186.674 0.259999 188.354 0.631999 189.866 1.376C191.402 2.12 192.71 3.116 193.79 4.364C194.87 5.612 195.71 7.004 196.31 8.54C196.91 10.076 197.21 11.66 197.21 13.292C197.21 14.972 196.898 16.592 196.274 18.152C195.65 19.688 194.774 21.068 193.646 22.292C192.542 23.492 191.222 24.44 189.686 25.136C188.174 25.832 186.518 26.18 184.718 26.18ZM177.302 13.22C177.302 14.324 177.47 15.392 177.806 16.424C178.142 17.456 178.622 18.38 179.246 19.196C179.894 19.988 180.674 20.624 181.586 21.104C182.522 21.56 183.578 21.788 184.754 21.788C185.954 21.788 187.022 21.548 187.958 21.068C188.894 20.564 189.674 19.904 190.298 19.088C190.922 18.248 191.39 17.324 191.702 16.316C192.038 15.284 192.206 14.252 192.206 13.22C192.206 12.116 192.026 11.06 191.666 10.052C191.33 9.02 190.838 8.108 190.19 7.316C189.566 6.5 188.786 5.864 187.85 5.408C186.938 4.928 185.906 4.688 184.754 4.688C183.53 4.688 182.45 4.94 181.514 5.444C180.602 5.924 179.834 6.572 179.21 7.388C178.586 8.204 178.106 9.116 177.77 10.124C177.458 11.132 177.302 12.164 177.302 13.22ZM205.989 9.584V26H201.021V0.439999H204.981L218.193 17.288V0.475998H223.161V26H219.021L205.989 9.584Z" fill="#DEDEDE"/>
</g>
<defs>
<filter id="filter0_di_4_172" x="0.849548" y="0.26001" width="226.312" height="34.028" filterUnits="userSpaceOnUse" color-interpolation-filters="sRGB">
<feFlood flood-opacity="0" result="BackgroundImageFix"/>
<feColorMatrix in="SourceAlpha" type="matrix" values="0 0 0 0 0 0 0 0 0 0 0 0 0 0 0 0 0 0 127 0" result="hardAlpha"/>
<feOffset dy="4"/>
<feGaussianBlur stdDeviation="2"/>
<feComposite in2="hardAlpha" operator="out"/>
<feColorMatrix type="matrix" values="0 0 0 0 0 0 0 0 0 0 0 0 0 0 0 0 0 0 0.25 0"/>
<feBlend mode="normal" in2="BackgroundImageFix" result="effect1_dropShadow_4_172"/>
<feBlend mode="normal" in="SourceGraphic" in2="effect1_dropShadow_4_172" result="shape"/>
<feColorMatrix in="SourceAlpha" type="matrix" values="0 0 0 0 0 0 0 0 0 0 0 0 0 0 0 0 0 0 127 0" result="hardAlpha"/>
<feOffset dy="4"/>
<feGaussianBlur stdDeviation="2"/>
<feComposite in2="hardAlpha" operator="arithmetic" k2="-1" k3="1"/>
<feColorMatrix type="matrix" values="0 0 0 0 0 0 0 0 0 0 0 0 0 0 0 0 0 0 0.25 0"/>
<feBlend mode="normal" in2="shape" result="effect2_innerShadow_4_172"/>
</filter>
</defs>
</svg>
