<svg width="40" height="40" viewBox="0 0 40 32" fill="none" xmlns="http://www.w3.org/2000/svg">
<path d="M11.4286 15.6071H28.5714C28.7679 15.6071 28.9286 15.4786 28.9286 15.3214V13.6071C28.9286 13.45 28.7679 13.3214 28.5714 13.3214H11.4286C11.2322 13.3214 11.0714 13.45 11.0714 13.6071V15.3214C11.0714 15.4786 11.2322 15.6071 11.4286 15.6071Z" fill="#333333"/>
<path d="M38.3523 0H5.39773C4.48633 0 3.75 0.510714 3.75 1.14286V30.8571C3.75 31.4893 4.48633 32 5.39773 32H38.3523C39.2637 32 40 31.4893 40 30.8571V1.14286C40 0.510714 39.2637 0 38.3523 0ZM36.2926 29.4286H7.45739V22.25H12.4984C13.0957 23.4214 14.1461 24.475 15.5415 25.275C17.318 26.2929 19.5682 26.8571 21.875 26.8571C24.1818 26.8571 26.432 26.2964 28.2085 25.275C29.6039 24.475 30.6543 23.4214 31.2516 22.25H36.2926V29.4286ZM36.2926 20H28.6513L28.3835 20.8821C27.7656 23.0179 25.0263 24.5714 21.875 24.5714C18.7237 24.5714 15.9844 23.0179 15.3613 20.8821L15.0936 20H7.45739V2.57143H36.2926V20Z" fill="black"/>
<path d="M11.4286 9.89289H28.5714C28.7679 9.89289 28.9286 9.76432 28.9286 9.60718V7.89289C28.9286 7.73575 28.7679 7.60718 28.5714 7.60718H11.4286C11.2322 7.60718 11.0714 7.73575 11.0714 7.89289V9.60718C11.0714 9.76432 11.2322 9.89289 11.4286 9.89289Z" fill="#333333"/>
</svg>
