<svg width="40" height="40" viewBox="0 0 40 32" fill="none" xmlns="http://www.w3.org/2000/svg">
<path d="M36.4286 1.71423H3.57143C2.78125 1.71423 2.14286 2.22495 2.14286 2.85709V29.1428C2.14286 29.7749 2.78125 30.2857 3.57143 30.2857H36.4286C37.2188 30.2857 37.8571 29.7749 37.8571 29.1428V2.85709C37.8571 2.22495 37.2188 1.71423 36.4286 1.71423ZM29.6116 12.0607C29.625 12.2285 29.625 12.4035 29.625 12.5749C29.625 17.8178 24.6339 23.8571 15.5134 23.8571C12.7009 23.8571 10.0937 23.2035 7.89732 22.0785C8.29911 22.1142 8.68304 22.1285 9.09375 22.1285C11.4152 22.1285 13.5491 21.4999 15.25 20.4357C13.0714 20.3999 11.2411 19.2571 10.6161 17.6857C11.3795 17.7749 12.067 17.7749 12.8527 17.6142C11.7309 17.4319 10.7227 16.9445 9.99918 16.2349C9.2757 15.5252 8.88164 14.6371 8.88393 13.7214V13.6714C9.54018 13.9678 10.3125 14.1499 11.1205 14.1749C10.4413 13.8128 9.88419 13.3221 9.49871 12.7465C9.11323 12.1708 8.91126 11.528 8.91071 10.8749C8.91071 10.1357 9.15179 9.46066 9.58482 8.87495C10.8299 10.1011 12.3836 11.104 14.1449 11.8184C15.9062 12.5328 17.8357 12.9426 19.808 13.0214C19.1071 10.3249 21.625 8.14281 24.6518 8.14281C26.0804 8.14281 27.3661 8.62138 28.2723 9.39281C29.3929 9.22495 30.4643 8.88923 31.4196 8.43923C31.0491 9.35709 30.2723 10.1321 29.2411 10.6214C30.2411 10.5357 31.2054 10.3142 32.0982 10.0035C31.4241 10.7964 30.5804 11.4999 29.6116 12.0607Z" fill="black"/>
</svg>
